PathFileType	4	(X/Y/Z)	Walk9.trc
DataRate	CameraRate	NumFrames	NumMarkers	Units	OrigDataRate	OrigDataStartFrame	OrigNumFrames
200.000000	200.000000	4	59	mm	200.000000	411	743
Frame#	Times		LToe		LBHD		LWRR		LElbowM		C7		RMT1		LACR1		RMT5		RToe		RTB2		LUA1		LCAR		RTB3		RWRU		LWRU		RCAR		RFA1		RCAL		RMMAL		RLFC		LMMAL		LTH2		RElbowM		LTB2		LPSI		LASI		LTH3		LLFC		RTH3		RASI		RPSI		LFHD		LCAL		STRN		LMT5		RBHD		RACR1		RMFC		RLMAL		RElbow		LLMAL		LMFC		RFHD		LTB1		LTH4		RUA1		LTB4		RBack		LTH1		RTB1		LElbow		RTH2		LMT1		RTH1		RTH4		LTB3		RTB4		RWRR		T10
			X1	Y1	Z1	X2	Y2	Z2	X3	Y3	Z3	X4	Y4	Z4	X5	Y5	Z5	X6	Y6	Z6	X7	Y7	Z7	X8	Y8	Z8	X9	Y9	Z9	X10	Y10	Z10	X11	Y11	Z11	X12	Y12	Z12	X13	Y13	Z13	X14	Y14	Z14	X15	Y15	Z15	X16	Y16	Z16	X17	Y17	Z17	X18	Y18	Z18	X19	Y19	Z19	X20	Y20	Z20	X21	Y21	Z21	X22	Y22	Z22	X23	Y23	Z23	X24	Y24	Z24	X25	Y25	Z25	X26	Y26	Z26	X27	Y27	Z27	X28	Y28	Z28	X29	Y29	Z29	X30	Y30	Z30	X31	Y31	Z31	X32	Y32	Z32	X33	Y33	Z33	X34	Y34	Z34	X35	Y35	Z35	X36	Y36	Z36	X37	Y37	Z37	X38	Y38	Z38	X39	Y39	Z39	X40	Y40	Z40	X41	Y41	Z41	X42	Y42	Z42	X43	Y43	Z43	X44	Y44	Z44	X45	Y45	Z45	X46	Y46	Z46	X47	Y47	Z47	X48	Y48	Z48	X49	Y49	Z49	X50	Y50	Z50	X51	Y51	Z51	X52	Y52	Z52	X53	Y53	Z53	X54	Y54	Z54	X55	Y55	Z55	X56	Y56	Z56	X57	Y57	Z57	X58	Y58	Z58	X59	Y59	Z59

411	2.055	-300.97	122.23	-86.836	-749.75	1592.9	-63.937	-857.83	807.72	-281.35	-846.68	1090.4	-281.89	-781	1466.2	2.3594	-837.52	22.803	21.165	-697.78	1400.3	-171.53	-886.91	19.378	100.09	-784.65	16.753	62.673	-855.07	264.43	92.972	-772.54	1211.5	-248.51	-868.36	950.87	-287.11	-886.03	186.4	14.256	-665.98	803.43	264.61	-793.08	773.32	-268.58	-590.69	799.25	269.1	-701.21	918.14	294.8	-1043.5	49.685	-6.1936	-954.52	76.855	-19.686	-795.39	498.62	115.54	-465.43	93.329	-36.226	-612.49	680.55	-130.24	-801.12	1068.6	228.28	-534.39	319.43	-135.67	-878.78	1027.4	-50.087	-683.54	1014.3	-157.3	-642.15	570.54	-155.48	-633.67	512.86	-142.27	-765.36	536.21	111.56	-708.14	979.36	153.33	-885.68	1032.7	18.484	-572.38	1630.8	-41.054	-532.8	25.187	-58.087	-862.48	1211.5	0.12918	-364.51	67.331	-133.82	-743.66	1587.1	72.694	-796.21	1352.6	156.95	-814.78	474.33	-10.867	-987.6	79.229	56.211	-757.2	1070.5	302.47	-488.08	71.348	-114.16	-628.85	488.29	-12.403	-569.12	1629	33.447	-539.76	414.24	-66.754	-667.09	660.17	-174.85	-692.25	1229.4	245.8	-517.79	324.27	-66.044	-665.44	1406.2	152.56	-693.68	749.34	-188.3	-801.46	353.33	27.68	-887.78	1092.8	-207.35	-714.23	639.83	111.43	-332.9	87.434	-61.563	-777.52	732.05	163.8	-780.7	637.59	144.97	-493.95	234.62	-67.194	-843.01	263.25	19.736	-607.26	841.65	218.35	-555.74	1212.6	-11.915
412	2.06	-298.81	118.96	-86.347	-744.66	1592.3	-64.651	-853.04	807.09	-281.99	-841.62	1089.8	-282.56	-775.96	1465.6	1.6597	-837.49	22.804	21.256	-692.68	1399.7	-172.19	-887	19.301	100.02	-784.64	16.722	62.625	-853.25	264.22	92.815	-767.48	1210.9	-249.17	-863.41	950.24	-287.81	-884.9	186.43	14.158	-661.38	802.87	264.17	-788.39	772.59	-268.99	-586	798.66	268.76	-696.46	917.61	294.22	-1043.4	50.76	-6.1157	-954.28	77.392	-19.666	-791.94	498.02	115.24	-463.42	91.606	-35.362	-606.29	681.23	-130.06	-796.19	1068.1	227.48	-529.94	318.36	-134.92	-873.64	1026.7	-50.54	-678.48	1013.6	-157.73	-635.13	570.99	-155.33	-627.43	512.61	-141.94	-763.54	536.51	112.23	-703.05	978.74	152.87	-880.6	1032.1	18.04	-567.31	1630.2	-41.641	-531.64	24.815	-57.34	-857.39	1210.9	-0.4148	-363.12	64.917	-133.42	-738.65	1586.5	71.99	-791.23	1352.1	156.3	-811.34	473.8	-11.069	-987.24	79.933	56.313	-752.39	1070	301.72	-486.33	70.152	-113.4	-622.62	488.38	-11.907	-564.1	1628.5	32.865	-534.72	413.19	-66.044	-660.41	660.48	-175.13	-687.34	1228.9	245.13	-513.56	323.04	-65.26	-660.39	1405.7	151.93	-687.4	749.47	-188.92	-799.88	353.4	27.097	-882.8	1092.2	-208.13	-710.17	638.94	111.03	-330.9	84.371	-61.248	-773.14	731.46	163.35	-776.62	636.99	144.59	-490.58	233.19	-66.334	-841.29	262.96	19.544	-602.44	841.03	217.95	-554.82	1212.6	-12.048
413	2.065	-296.77	115.54	-85.726	-739.55	1591.8	-65.383	-848.13	806.46	-282.65	-836.5	1089.1	-283.23	-770.9	1465	0.94258	-837.45	22.811	21.341	-687.57	1399	-172.87	-887.1	19.231	99.937	-784.62	16.69	62.575	-851.38	264.06	92.646	-762.37	1210.2	-249.82	-858.37	949.59	-288.52	-883.73	186.52	14.049	-656.85	802.33	263.68	-783.58	771.86	-269.42	-581.37	798.09	268.41	-691.77	917.11	293.61	-1043.2	51.959	-6.0601	-954.01	77.995	-19.644	-788.39	497.44	114.92	-461.57	89.866	-34.502	-599.98	681.88	-129.89	-791.28	1067.7	226.64	-525.49	317.34	-134.13	-868.49	1026.1	-50.975	-673.45	1012.8	-158.21	-628.18	571.44	-155.09	-621.25	512.39	-141.62	-761.82	536.89	112.93	-697.85	978.12	152.34	-875.5	1031.6	17.614	-562.24	1629.7	-42.245	-530.69	24.572	-56.693	-852.29	1210.3	-0.95423	-361.87	62.428	-132.96	-733.62	1586	71.266	-786.22	1351.6	155.63	-807.82	473.29	-11.284	-986.86	80.743	56.389	-747.61	1069.6	300.92	-484.69	69.016	-112.68	-616.49	488.48	-11.44	-559.07	1627.9	32.268	-529.75	412.16	-65.27	-653.74	660.8	-175.29	-682.43	1228.4	244.43	-509.42	321.84	-64.433	-655.31	1405.3	151.29	-681.02	749.64	-189.43	-798.25	353.54	26.428	-877.76	1091.5	-208.89	-706.04	638.09	110.6	-329.04	81.177	-60.868	-768.72	730.88	162.85	-772.48	636.4	144.18	-487.32	231.78	-65.449	-839.5	262.71	19.339	-597.67	840.42	217.54	-553.36	1212.5	-12.254
414	2.07	-294.79	112.02	-84.987	-734.43	1591.2	-66.131	-843.11	805.81	-283.34	-831.31	1088.4	-283.9	-765.82	1464.5	0.20942	-837.41	22.824	21.412	-682.45	1398.4	-173.57	-887.21	19.168	99.823	-784.62	16.657	62.526	-849.45	263.96	92.466	-757.22	1209.6	-250.49	-853.24	948.94	-289.25	-882.49	186.67	13.934	-652.38	801.81	263.17	-778.65	771.14	-269.88	-576.8	797.53	268.04	-687.13	916.65	292.97	-1043	53.302	-6.0259	-953.69	78.676	-19.617	-784.72	496.87	114.57	-459.82	88.145	-33.656	-593.58	682.46	-129.74	-786.39	1067.2	225.76	-521.04	316.4	-133.34	-863.32	1025.6	-51.394	-668.42	1012.2	-158.73	-621.38	571.86	-154.76	-615.14	512.2	-141.3	-760.14	537.31	113.63	-692.56	977.5	151.77	-870.39	1031.1	17.202	-557.14	1629.3	-42.866	-529.88	24.471	-56.138	-847.18	1209.8	-1.4912	-360.69	59.905	-132.46	-728.58	1585.5	70.523	-781.19	1351.2	154.95	-804.21	472.79	-11.512	-986.43	81.67	56.444	-742.86	1069.2	300.09	-483.1	67.963	-111.99	-610.52	488.57	-11.016	-554.03	1627.5	31.656	-524.87	411.17	-64.448	-647.13	661.14	-175.32	-677.53	1227.9	243.72	-505.36	320.67	-63.578	-650.21	1404.8	150.64	-674.58	749.85	-189.82	-796.56	353.75	25.679	-872.65	1090.9	-209.65	-701.82	637.26	110.14	-327.27	77.913	-60.432	-764.24	730.32	162.32	-768.25	635.83	143.74	-484.14	230.42	-64.551	-837.63	262.52	19.124	-592.94	839.82	217.12	-551.4	1212.4	-12.53
